<svg xmlns="http://www.w3.org/2000/svg" width="375" viewBox="0 0 375 375" height="375" version="1.0"><defs><clipPath id="a"><path d="M 0 1.640625 L 373 1.640625 L 373 373.640625 L 0 373.640625 Z M 0 1.640625"/></clipPath></defs><path fill="#007FFF" d="M 186.484375 116.601562 C 208.308594 116.601562 227.859375 126.515625 240.890625 142.070312 L 250.429688 135.316406 C 235.28125 116.796875 212.261719 104.976562 186.484375 104.976562 C 140.863281 104.976562 103.878906 141.984375 103.878906 187.640625 C 103.878906 233.296875 140.863281 270.308594 186.484375 270.308594 C 225.632812 270.308594 258.394531 243.046875 266.914062 206.464844 C 261.328125 210.421875 255.878906 214.285156 250.65625 217.984375 C 239.265625 242.019531 214.785156 258.683594 186.484375 258.683594 C 147.339844 258.683594 115.496094 226.8125 115.496094 187.640625 C 115.496094 148.46875 147.339844 116.601562 186.484375 116.601562 Z M 186.484375 116.601562"/><g clip-path="url(#a)"><path fill="#007FFF" d="M 353.984375 156.636719 L 337.195312 156.636719 C 332.054688 160.28125 326.546875 164.1875 320.800781 168.261719 L 353.984375 168.261719 C 357.636719 168.261719 360.726562 172.410156 360.726562 177.320312 L 360.726562 197.972656 C 360.726562 202.875 357.636719 207.019531 353.984375 207.019531 L 318.328125 207.019531 L 316.335938 216.167969 C 312.996094 231.488281 306.972656 246.019531 298.433594 259.355469 L 293.390625 267.234375 L 300.003906 273.847656 L 318.625 292.484375 C 320.015625 293.875 320.21875 295.722656 320.136719 297.03125 C 320.003906 299.367188 318.851562 301.777344 316.988281 303.644531 L 302.40625 318.246094 C 300.390625 320.257812 297.808594 321.410156 295.324219 321.410156 C 294.164062 321.410156 292.511719 321.144531 291.242188 319.871094 L 272.621094 301.242188 L 266.011719 294.628906 L 258.140625 299.675781 C 244.824219 308.214844 230.308594 314.242188 214.988281 317.589844 L 205.847656 319.585938 L 205.847656 355.273438 C 205.847656 358.925781 201.707031 362.015625 196.804688 362.015625 L 176.164062 362.015625 C 171.261719 362.015625 167.121094 358.925781 167.121094 355.273438 L 167.121094 319.585938 L 157.980469 317.589844 C 142.660156 314.242188 128.140625 308.214844 114.828125 299.675781 L 106.957031 294.625 L 100.347656 301.242188 L 81.71875 319.878906 C 80.457031 321.144531 78.808594 321.410156 77.644531 321.410156 C 75.160156 321.410156 72.578125 320.257812 70.570312 318.253906 L 55.980469 303.644531 C 54.113281 301.777344 52.964844 299.367188 52.828125 297.03125 C 52.753906 295.726562 52.953125 293.875 54.355469 292.476562 L 72.96875 273.847656 L 79.578125 267.234375 L 74.535156 259.355469 C 65.996094 246.023438 59.976562 231.492188 56.636719 216.164062 L 54.640625 207.019531 L 18.984375 207.019531 C 15.328125 207.019531 12.242188 202.875 12.242188 197.972656 L 12.242188 177.320312 C 12.242188 172.410156 15.328125 168.261719 18.984375 168.261719 L 54.640625 168.261719 L 56.636719 159.117188 C 59.976562 143.785156 65.996094 129.257812 74.535156 115.933594 L 79.578125 108.054688 L 72.96875 101.441406 L 54.34375 82.796875 C 53.082031 81.539062 52.816406 79.890625 52.816406 78.726562 C 52.8125 76.242188 53.964844 73.664062 55.976562 71.648438 L 70.566406 57.042969 C 72.582031 55.027344 75.164062 53.871094 77.648438 53.871094 C 78.808594 53.871094 80.457031 54.136719 81.730469 55.410156 L 100.347656 74.039062 L 106.957031 80.652344 L 114.828125 75.605469 C 128.136719 67.066406 142.65625 61.042969 157.976562 57.703125 L 167.121094 55.710938 L 167.121094 20.007812 C 167.121094 16.351562 171.261719 13.265625 176.164062 13.265625 L 196.804688 13.265625 C 201.707031 13.265625 205.847656 16.351562 205.847656 20.007812 L 205.847656 55.710938 L 214.992188 57.703125 C 230.3125 61.042969 244.828125 67.066406 258.140625 75.605469 L 266.011719 80.652344 L 272.621094 74.039062 L 291.253906 55.402344 C 292.511719 54.136719 294.160156 53.871094 295.320312 53.871094 C 297.804688 53.871094 300.386719 55.027344 302.394531 57.035156 L 316.992188 71.652344 C 318.851562 73.515625 320.003906 75.921875 320.136719 78.253906 C 320.21875 79.5625 320.015625 81.410156 318.617188 82.808594 L 304.210938 97.226562 L 331.738281 77.730469 C 331.480469 72.6875 329.285156 67.511719 325.207031 63.429688 L 310.613281 48.820312 C 306.261719 44.46875 300.671875 42.246094 295.320312 42.246094 C 290.738281 42.246094 286.332031 43.875 283.027344 47.191406 L 264.40625 65.816406 C 250.25 56.734375 234.421875 50.042969 217.464844 46.34375 L 217.464844 20.007812 C 217.464844 9.863281 208.214844 1.640625 196.804688 1.640625 L 176.164062 1.640625 C 164.75 1.640625 155.507812 9.863281 155.507812 20.007812 L 155.507812 46.34375 C 138.546875 50.042969 122.714844 56.734375 108.558594 65.816406 L 89.941406 47.191406 C 86.636719 43.875 82.230469 42.246094 77.648438 42.246094 C 72.296875 42.246094 66.707031 44.464844 62.355469 48.820312 L 47.761719 63.429688 C 39.695312 71.503906 38.960938 83.859375 46.140625 91.027344 L 64.753906 109.660156 C 55.679688 123.828125 48.984375 139.667969 45.285156 156.636719 L 18.984375 156.636719 C 8.839844 156.636719 0.625 165.890625 0.625 177.320312 L 0.625 197.972656 C 0.625 209.390625 8.839844 218.644531 18.984375 218.644531 L 45.285156 218.644531 C 48.984375 235.613281 55.679688 251.453125 64.753906 265.628906 L 46.140625 284.257812 C 38.960938 291.425781 39.695312 303.777344 47.761719 311.863281 L 62.355469 326.472656 C 66.707031 330.816406 72.296875 333.035156 77.644531 333.035156 C 82.226562 333.035156 86.636719 331.40625 89.941406 328.089844 L 108.558594 309.464844 C 122.714844 318.546875 138.546875 325.242188 155.507812 328.945312 L 155.507812 355.273438 C 155.507812 365.417969 164.75 373.640625 176.164062 373.640625 L 196.804688 373.640625 C 208.214844 373.640625 217.464844 365.417969 217.464844 355.273438 L 217.464844 328.945312 C 234.421875 325.242188 250.25 318.546875 264.40625 309.464844 L 283.027344 328.089844 C 286.332031 331.40625 290.742188 333.035156 295.324219 333.035156 C 300.675781 333.035156 306.261719 330.816406 310.613281 326.472656 L 325.207031 311.863281 C 333.273438 303.777344 334.007812 291.425781 326.832031 284.257812 L 308.214844 265.628906 C 317.289062 251.453125 323.988281 235.613281 327.683594 218.644531 L 353.984375 218.644531 C 364.128906 218.644531 372.34375 209.390625 372.34375 197.972656 L 372.34375 177.320312 C 372.34375 165.890625 364.128906 156.636719 353.984375 156.636719 Z M 353.984375 156.636719"/></g><path fill="#007FFF" d="M 202.0625 183.671875 C 201.828125 183.332031 201.59375 182.980469 201.382812 182.652344 L 178.640625 151.832031 C 175.691406 147.660156 170.898438 145.167969 165.824219 145.167969 C 162.496094 145.167969 159.3125 146.210938 156.609375 148.1875 L 146.53125 155.5625 C 139.539062 160.671875 137.9375 170.609375 143.015625 177.796875 C 143.300781 178.183594 171.546875 216.632812 183.882812 234.15625 C 186.4375 237.785156 190.613281 239.953125 195.054688 239.953125 C 195.054688 239.953125 195.054688 239.953125 195.058594 239.953125 C 197.976562 239.953125 200.851562 239.007812 203.382812 237.222656 C 235.066406 214.824219 365.761719 122.136719 365.832031 122.085938 C 372.820312 116.972656 374.425781 107.035156 369.40625 99.929688 L 362.15625 89.679688 C 359.210938 85.507812 354.417969 83.015625 349.34375 83.015625 C 346.015625 83.015625 342.832031 84.058594 340.195312 85.984375 L 205.65625 181.265625 C 204.527344 182.136719 203.171875 183.03125 202.0625 183.671875 Z M 346.972656 95.425781 C 348.773438 94.109375 351.386719 94.566406 352.667969 96.394531 L 359.925781 106.644531 C 361.300781 108.59375 360.875 111.308594 359.046875 112.648438 C 359.046875 112.648438 228.363281 205.328125 196.683594 227.726562 C 196.113281 228.125 195.570312 228.328125 195.058594 228.328125 C 194.269531 228.328125 193.660156 227.863281 193.378906 227.460938 C 180.972656 209.84375 152.660156 171.296875 152.4375 170.996094 C 151.0625 169.050781 151.484375 166.335938 153.386719 164.945312 L 163.464844 157.574219 C 164.160156 157.0625 164.976562 156.792969 165.824219 156.792969 C 167.15625 156.792969 168.367188 157.429688 169.226562 158.640625 L 191.6875 189.054688 C 192.699219 190.640625 194.5625 193.304688 196.414062 194.707031 C 197.644531 195.628906 199.148438 196.117188 200.773438 196.117188 C 204.613281 196.117188 209.398438 193.054688 212.550781 190.625 Z M 346.972656 95.425781"/></svg>