<svg xmlns="http://www.w3.org/2000/svg" width="375" viewBox="0 0 375 375" height="375" version="1.0"><path fill="#222" d="M 150.988281 107.949219 L 309.988281 107.949219 L 309.988281 266.949219 L 150.988281 266.949219 L 150.988281 107.949219"/><path fill="#007FFF" d="M 352.753906 142.207031 C 340.085938 128.511719 326.3125 115.777344 313.347656 102.304688 C 299.5 88.539062 285.726562 74.699219 271.875 60.859375 C 263.996094 53.128906 256.554688 44.515625 246.683594 39.363281 C 226.945312 28.246094 201.753906 27.734375 181.570312 38.039062 C 166.542969 45.402344 156.230469 59.167969 144.226562 70.355469 C 141.792969 72.859375 139.289062 75.289062 136.785156 77.792969 C 130.082031 84.5625 123.230469 91.191406 116.527344 98.035156 C 111.667969 102.96875 106.734375 107.972656 101.648438 112.6875 C 106.878906 112.023438 112.773438 110.992188 117.414062 114.453125 C 124.558594 119.898438 130.304688 126.96875 136.933594 133.078125 C 142.972656 138.378906 148.867188 146.476562 145.109375 154.792969 C 139.289062 165.835938 127.355469 172.242188 121.242188 183.0625 C 118.445312 191.457031 126.472656 197.417969 131.628906 202.644531 C 137.226562 208.679688 145.84375 213.980469 146.066406 223.183594 C 146.730469 231.648438 139.289062 237.316406 133.988281 242.691406 C 128.167969 247.992188 123.230469 254.46875 116.675781 258.960938 C 111.960938 262.199219 106.070312 260.726562 100.839844 259.917969 C 122.496094 281.121094 143.5625 302.835938 165.292969 324.039062 C 183.339844 341.484375 210.960938 347.078125 234.679688 339.496094 C 245.359375 335.59375 255.15625 329.484375 263.039062 321.3125 C 292.28125 292.015625 321.671875 262.863281 350.765625 233.488281 C 374.117188 209.121094 375 167.457031 352.753906 142.207031 Z M 299.203125 193.148438 C 293.238281 208.976562 277.253906 220.386719 260.3125 220.605469 C 240.054688 220.753906 219.800781 220.605469 199.542969 220.679688 C 198.878906 221.417969 197.628906 222.816406 196.964844 223.476562 C 196.816406 236.359375 196.964844 249.316406 196.816406 262.199219 C 185.179688 262.125 173.542969 262.125 161.976562 262.199219 C 161.828125 240.558594 161.757812 218.988281 161.902344 197.34375 C 161.828125 191.75 167.132812 186.964844 172.65625 187.480469 C 201.3125 187.332031 229.964844 187.554688 258.617188 187.40625 C 263.40625 187.996094 268.265625 184.460938 268.710938 179.601562 C 269.152344 172.460938 269.003906 165.320312 268.855469 158.179688 C 268.78125 153.027344 263.699219 148.90625 258.691406 149.566406 C 226.429688 149.566406 194.167969 149.714844 161.902344 149.492188 C 162.199219 138.453125 161.609375 127.335938 162.273438 116.292969 C 190.042969 116.660156 217.882812 116.292969 245.652344 116.441406 C 255.894531 116.585938 266.71875 115.335938 276.296875 119.898438 C 291.914062 126.453125 302.667969 142.941406 302.152344 159.875 C 301.707031 170.988281 303.402344 182.546875 299.203125 193.148438 Z M 299.203125 193.148438"/><path fill="#007FFF" d="M 95.019531 173.566406 C 98.851562 177.394531 104.964844 177.394531 108.792969 173.566406 L 125.882812 156.488281 C 129.714844 152.660156 129.714844 146.550781 125.882812 142.722656 L 108.792969 125.640625 C 104.964844 121.8125 98.851562 121.8125 95.019531 125.640625 L 77.929688 142.792969 C 74.101562 146.621094 74.101562 152.734375 77.929688 156.5625 Z M 95.019531 173.566406"/><path fill="#007FFF" d="M 110.5625 243.871094 L 125.148438 229.292969 C 128.386719 226.054688 128.386719 220.828125 125.148438 217.589844 L 110.5625 202.9375 C 107.320312 199.699219 102.09375 199.699219 98.851562 202.9375 L 84.265625 217.515625 C 81.023438 220.753906 81.023438 225.980469 84.265625 229.21875 L 98.851562 243.796875 C 102.09375 247.109375 107.320312 247.109375 110.5625 243.871094 Z M 110.5625 243.871094"/><path fill="#007FFF" d="M 28.800781 156.488281 C 30.9375 154.351562 30.9375 150.964844 28.800781 148.832031 L 19.296875 139.335938 C 17.164062 137.199219 13.773438 137.199219 11.636719 139.335938 L 2.136719 148.832031 C 0 150.964844 0 154.351562 2.136719 156.488281 L 11.636719 165.984375 C 13.773438 168.117188 17.164062 168.117188 19.296875 165.984375 Z M 28.800781 156.488281"/><path fill="#007FFF" d="M 82.792969 181.886719 L 60.917969 160.019531 C 56.054688 155.164062 48.171875 155.164062 43.238281 160.019531 L 21.359375 181.886719 C 16.5 186.742188 16.5 194.621094 21.359375 199.554688 L 43.238281 221.417969 C 48.097656 226.277344 55.980469 226.277344 60.917969 221.417969 L 82.792969 199.554688 C 87.65625 194.695312 87.65625 186.742188 82.792969 181.886719 Z M 82.792969 181.886719"/></svg>