<svg xmlns="http://www.w3.org/2000/svg" width="375" viewBox="0 0 375 375" height="375" version="1.0"><defs><clipPath id="a"><path d="M 2 36.5625 L 363 36.5625 L 363 234 L 2 234 Z M 2 36.5625"/></clipPath><clipPath id="b"><path d="M 83 228 L 375 228 L 375 338.8125 L 83 338.8125 Z M 83 228"/></clipPath></defs><path fill="#007FFF" d="M 124.246094 289.894531 C 133.867188 289.894531 141.695312 282.054688 141.695312 272.421875 C 141.695312 262.789062 133.867188 254.953125 124.246094 254.953125 C 114.625 254.953125 106.796875 262.789062 106.796875 272.421875 C 106.796875 282.054688 114.625 289.894531 124.246094 289.894531 Z M 124.246094 266.597656 C 127.453125 266.597656 130.0625 269.210938 130.0625 272.421875 C 130.0625 275.632812 127.453125 278.246094 124.246094 278.246094 C 121.039062 278.246094 118.429688 275.632812 118.429688 272.421875 C 118.429688 269.210938 121.039062 266.597656 124.246094 266.597656 Z M 124.246094 266.597656"/><g clip-path="url(#a)"><path fill="#007FFF" d="M 80.445312 213.507812 L 118.464844 194.472656 L 129.054688 217.453125 L 134.15625 217.65625 L 145.996094 218.132812 L 186.085938 48.234375 L 231.84375 59.183594 L 229.40625 69.523438 L 214.503906 65.957031 C 211.375 65.210938 208.242188 67.140625 207.496094 70.269531 C 206.75 73.394531 208.675781 76.539062 211.800781 77.285156 L 226.730469 80.855469 L 224.066406 92.15625 L 217.597656 90.605469 C 214.460938 89.859375 211.332031 91.789062 210.585938 94.914062 C 209.839844 98.042969 211.765625 101.1875 214.890625 101.933594 L 221.390625 103.488281 L 218.726562 114.789062 L 203.824219 111.222656 C 200.695312 110.480469 197.558594 112.40625 196.8125 115.535156 C 196.066406 118.664062 197.996094 121.804688 201.121094 122.554688 L 216.050781 126.125 L 213.382812 137.421875 L 206.917969 135.871094 C 203.785156 135.128906 200.652344 137.054688 199.90625 140.183594 C 199.160156 143.3125 201.085938 146.453125 204.210938 147.203125 L 210.710938 148.757812 L 208.046875 160.054688 L 193.140625 156.492188 C 190.011719 155.753906 186.878906 157.675781 186.132812 160.800781 C 185.386719 163.929688 187.3125 167.074219 190.4375 167.820312 L 205.371094 171.390625 L 202.703125 182.691406 L 196.230469 181.140625 C 193.101562 180.402344 189.96875 182.324219 189.222656 185.453125 C 188.476562 188.585938 190.402344 191.722656 193.53125 192.472656 L 200.027344 194.023438 L 199.671875 195.535156 L 185.761719 202.550781 L 182.460938 201.757812 C 179.332031 201.015625 176.195312 202.941406 175.449219 206.070312 C 175.308594 206.65625 175.28125 207.242188 175.320312 207.8125 L 154.199219 218.460938 L 178.15625 219.421875 L 309.347656 153.273438 L 348.691406 151.738281 L 323.828125 179.648438 L 236.925781 221.773438 L 261.578125 222.761719 L 330.972656 189.121094 L 360.394531 156.097656 L 361.046875 155.210938 C 363.023438 151.902344 363.261719 148.269531 361.703125 145.238281 C 360.136719 142.191406 357.007812 140.261719 353.125 139.953125 L 352.777344 139.925781 L 306.375 141.734375 L 213.238281 188.695312 L 243.167969 61.863281 C 244.644531 55.613281 240.804688 49.339844 234.59375 47.855469 L 188.6875 36.882812 C 187.789062 36.664062 186.890625 36.5625 186.007812 36.5625 C 180.777344 36.5625 176.035156 40.164062 174.773438 45.511719 L 136.800781 206.460938 L 126.980469 185.15625 C 126.878906 184.734375 126.742188 184.320312 126.539062 183.917969 C 126.40625 183.644531 126.234375 183.402344 126.0625 183.160156 L 62.316406 44.832031 C 60.390625 40.652344 56.347656 38.207031 52.136719 38.207031 C 50.519531 38.207031 48.878906 38.5625 47.324219 39.324219 L 8.539062 58.230469 C 2.917969 60.972656 0.523438 67.878906 3.1875 73.65625 L 13.746094 96.566406 C 13.785156 97.339844 13.976562 98.121094 14.347656 98.859375 C 14.648438 99.464844 15.058594 99.964844 15.511719 100.40625 L 76.710938 233.210938 C 78.90625 229.53125 81.761719 226.296875 85.136719 223.6875 Z M 13.75 68.777344 C 13.730469 68.730469 13.730469 68.683594 13.738281 68.648438 L 51.90625 50.042969 L 60.707031 69.140625 L 22.6875 88.175781 Z M 27.5625 98.753906 L 65.585938 79.722656 L 74.335938 98.714844 L 36.316406 117.746094 Z M 41.191406 128.332031 L 79.214844 109.296875 L 87.964844 128.289062 L 49.945312 147.324219 Z M 54.820312 157.90625 L 92.84375 138.871094 L 101.050781 156.683594 L 63.027344 175.714844 Z M 75.566406 202.925781 L 67.90625 186.296875 L 105.925781 167.261719 L 113.585938 183.890625 Z M 75.566406 202.925781"/></g><g clip-path="url(#b)"><path fill="#007FFF" d="M 374.355469 262.230469 C 374.355469 249.417969 363.894531 238.519531 351.105469 238.007812 L 108.75 228.296875 C 108.75 228.296875 104.71875 228.21875 104.15625 228.261719 C 92.589844 229.117188 83.53125 238.65625 83.53125 250.582031 L 83.53125 317.554688 C 83.53125 329.667969 92.847656 338.855469 104.632812 338.855469 C 105.3125 338.855469 106.003906 338.828125 106.703125 338.761719 L 351.183594 316.730469 C 363.925781 315.582031 374.355469 304.164062 374.355469 291.347656 L 374.355469 282.613281 C 374.355469 282.105469 374.316406 281.605469 374.285156 281.101562 C 374.3125 280.632812 374.355469 280.175781 374.355469 279.703125 Z M 350.140625 305.128906 L 105.660156 327.160156 C 105.3125 327.195312 104.96875 327.210938 104.632812 327.210938 C 99.144531 327.210938 95.164062 323.148438 95.164062 317.554688 L 95.164062 313.832031 C 98.269531 315.484375 101.820312 316.421875 105.605469 316.421875 C 105.988281 316.421875 106.378906 316.414062 106.769531 316.394531 L 351.117188 304.160156 C 352.421875 304.09375 353.691406 303.894531 354.9375 303.621094 C 353.441406 304.425781 351.828125 304.980469 350.140625 305.128906 Z M 362.722656 279.703125 C 362.722656 286.320312 357.140625 292.195312 350.535156 292.527344 L 106.1875 304.761719 C 105.992188 304.769531 105.796875 304.773438 105.605469 304.773438 C 99.75 304.773438 95.164062 300.15625 95.164062 294.261719 L 95.164062 250.582031 C 95.164062 244.5625 99.855469 239.847656 105.847656 239.847656 L 105.851562 239.847656 C 106.003906 239.847656 350.640625 249.644531 350.640625 249.644531 C 357.191406 249.90625 362.722656 255.671875 362.722656 262.230469 Z M 362.722656 279.703125"/></g></svg>