<svg xmlns="http://www.w3.org/2000/svg" width="375" viewBox="0 0 375 375" height="375" version="1.0"><path fill="#007FFF" d="M 71.25 89.542969 L 303.75 89.542969 C 305.820312 89.542969 307.5 91.21875 307.5 93.292969 L 307.5 257.132812 C 307.5 259.203125 305.820312 260.882812 303.75 260.882812 L 71.25 260.882812 C 69.179688 260.882812 67.5 259.203125 67.5 257.132812 L 67.5 93.292969 C 67.5 91.21875 69.179688 89.542969 71.25 89.542969 Z M 300 97.039062 L 75 97.039062 L 75 253.382812 L 300 253.382812 L 300 97.039062"/><path fill="#007FFF" d="M 165.65625 253.382812 L 209.34375 253.382812 C 211.414062 253.382812 213.09375 255.0625 213.09375 257.132812 L 213.09375 281.707031 C 213.09375 283.78125 211.414062 285.457031 209.34375 285.457031 L 165.65625 285.457031 C 163.585938 285.457031 161.902344 283.78125 161.902344 281.707031 L 161.902344 257.132812 C 161.902344 255.0625 163.585938 253.382812 165.65625 253.382812 Z M 205.597656 260.882812 L 169.402344 260.882812 L 169.402344 277.960938 L 205.597656 277.960938 L 205.597656 260.882812"/><path fill="#007FFF" d="M 129.464844 277.960938 C 127.394531 277.960938 125.71875 279.636719 125.71875 281.707031 C 125.71875 283.78125 127.394531 285.457031 129.464844 285.457031 L 245.535156 285.457031 C 247.605469 285.457031 249.28125 283.78125 249.28125 281.707031 C 249.28125 279.636719 247.605469 277.960938 245.535156 277.960938 L 129.464844 277.960938"/><path fill="#007FFF" d="M 227.84375 125.984375 L 269.941406 125.984375 C 272.011719 125.984375 273.691406 127.664062 273.691406 129.734375 L 273.691406 256.90625 C 273.691406 258.976562 272.011719 260.652344 269.941406 260.652344 L 227.84375 260.652344 C 225.773438 260.652344 224.09375 258.976562 224.09375 256.90625 L 224.09375 129.734375 C 224.09375 127.664062 225.773438 125.984375 227.84375 125.984375 Z M 266.191406 133.484375 L 231.59375 133.484375 L 231.59375 253.152344 L 266.191406 253.152344 L 266.191406 133.484375"/><path fill="#007FFF" d="M 166.449219 157.886719 L 208.550781 157.886719 C 210.621094 157.886719 212.296875 159.566406 212.296875 161.636719 L 212.296875 256.90625 C 212.296875 258.976562 210.621094 260.652344 208.550781 260.652344 L 166.449219 260.652344 C 164.378906 260.652344 162.703125 258.976562 162.703125 256.90625 L 162.703125 161.636719 C 162.703125 159.566406 164.378906 157.886719 166.449219 157.886719 Z M 204.796875 165.386719 L 170.203125 165.386719 L 170.203125 253.152344 L 204.796875 253.152344 L 204.796875 165.386719"/><path fill="#007FFF" d="M 105.058594 189.570312 L 147.15625 189.570312 C 149.226562 189.570312 150.90625 191.25 150.90625 193.320312 L 150.90625 256.90625 C 150.90625 258.976562 149.226562 260.652344 147.15625 260.652344 L 105.058594 260.652344 C 102.988281 260.652344 101.3125 258.976562 101.3125 256.90625 L 101.3125 193.320312 C 101.3125 191.25 102.988281 189.570312 105.058594 189.570312 Z M 143.40625 197.070312 L 108.808594 197.070312 L 108.808594 253.152344 L 143.40625 253.152344 L 143.40625 197.070312"/><path fill="#007FFF" d="M 187.5 0 C 291.054688 0 375 83.945312 375 187.5 C 375 291.054688 291.054688 375 187.5 375 C 83.945312 375 0 291.054688 0 187.5 C 0 83.945312 83.945312 0 187.5 0 Z M 187.5 15 C 92.230469 15 15 92.230469 15 187.5 C 15 282.769531 92.230469 360 187.5 360 C 282.769531 360 360 282.769531 360 187.5 C 360 92.230469 282.769531 15 187.5 15" fill-rule="evenodd"/></svg>